<svg id="coach" xmlns="http://www.w3.org/2000/svg" width="38.082" height="38.082" viewBox="0 0 38.082 38.082">
  <path id="Tracé_18" data-name="Tracé 18" d="M186.858,375.015a5.576,5.576,0,0,0,10.285,0,11.717,11.717,0,0,1-10.285,0Z" transform="translate(-172.96 -347.122)" fill="#f2bc1b"/>
  <path id="Tracé_19" data-name="Tracé 19" d="M31.5,368.857c-1.721-.281-3.306-.493-4.828-.674a7.8,7.8,0,0,1-15.253,0c-1.522.181-3.107.393-4.828.675A7.827,7.827,0,0,0,0,376.559v1.205a1.115,1.115,0,0,0,1.116,1.116H36.966a1.115,1.115,0,0,0,1.116-1.116v-1.205a7.829,7.829,0,0,0-6.587-7.7Z" transform="translate(0 -340.798)" fill="#f2bc1b"/>
  <path id="Tracé_20" data-name="Tracé 20" d="M127.535,8a10.6,10.6,0,0,1,9.923,0,8.2,8.2,0,0,0,4.962.952A10.182,10.182,0,0,0,133.613,0V3.421a1.116,1.116,0,1,1-2.231,0V0a10.181,10.181,0,0,0-8.808,8.958A8.2,8.2,0,0,0,127.535,8Z" transform="translate(-113.456)" fill="#f2bc1b"/>
  <circle id="Ellipse_6" data-name="Ellipse 6" cx="1.116" cy="1.116" r="1.116" transform="translate(12.938 20.157)" fill="#f2bc1b"/>
  <g id="Groupe_2" data-name="Groupe 2" transform="translate(6.768 9)">
    <path id="Tracé_21" data-name="Tracé 21" d="M113.314,123.422A9.774,9.774,0,0,1,107.236,122a8.37,8.37,0,0,0-7.927,0,9.535,9.535,0,0,1-4.916,1.249c-.359,0-.746.2-1.161.175a3.347,3.347,0,0,0,.044,6.327,9.964,9.964,0,0,0,2.223,5.37,3.342,3.342,0,0,1,2.787-5.194h4.976a1.116,1.116,0,1,1,0,2.231h-1.834a3.308,3.308,0,0,1,.206,1.116,3.351,3.351,0,0,1-3.347,3.347,3.316,3.316,0,0,1-2.158-.81,10,10,0,0,0,17.143-6.061,3.347,3.347,0,0,0,.044-6.327Zm-13.388,3.156a1.116,1.116,0,1,1,1.116-1.116A1.116,1.116,0,0,1,99.925,126.578Zm6.694,0a1.116,1.116,0,1,1,1.116-1.116A1.116,1.116,0,0,1,106.62,126.578Z" transform="translate(-91 -121)" fill="#f2bc1b"/>
  </g>
</svg>
