<svg id="Capa_1" enable-background="new 0 0 512 512" height="512" viewBox="0 0 512 512" width="512" xmlns="http://www.w3.org/2000/svg"><g><path d="m186.858 375.015c11.369 26.984 38.073 45.985 69.142 45.985s57.773-18.999 69.142-45.983c-21.216 10.071-44.584 15.983-69.142 15.983-24.56 0-47.926-5.914-69.142-15.985z"/><path d="m423.446 377.245c-23.132-3.783-44.453-6.632-64.909-9.062-10.226 47.256-52.269 82.817-102.537 82.817s-92.309-35.559-102.535-82.815c-20.457 2.432-41.779 5.283-64.911 9.075-50.728 8.32-88.554 51.87-88.554 103.535v16.205c0 8.291 6.709 15 15 15h482c8.291 0 15-6.709 15-15v-16.205c0-51.665-37.826-95.215-88.554-103.55z"/><path d="m189.291 107.582c15.557-7.778 33.164-16.582 66.709-16.582s51.167 8.818 66.709 16.582c15.645 7.846 31.208 15.161 66.713 12.801-7.268-62.038-56.302-113.394-118.422-120.383v46c0 8.291-6.709 15-15 15s-15-6.709-15-15v-46c-62.139 6.991-111.182 58.372-118.427 120.434 36.09 2.353 51.612-5.284 66.718-12.852z"/><circle cx="188.95" cy="286" r="15"/><g><path d="m391 153.564c-43.665 2.959-62.928-9.765-81.709-19.146-14.399-7.207-26.836-13.418-53.291-13.418s-38.892 6.211-53.291 13.418c-17.007 8.511-33.574 16.787-66.094 16.787-4.825 0-10.036 2.748-15.615 2.358-17.461 6.197-30 22.881-30 42.437 0 19.775 12.817 36.606 30.586 42.627 2.543 27.299 13.495 52.04 29.888 72.198-4.735-7.123-7.524-15.648-7.524-24.825 0-24.814 20.186-45 45-45h66.899c8.291 0 15 6.709 15 15s-6.709 15-15 15h-24.662c1.681 4.715 2.763 9.716 2.763 15 0 24.814-20.186 45-45 45-11.107 0-21.156-4.197-29.013-10.891 24.52 25.027 58.341 40.891 96.063 40.891 70.181 0 128.027-53.818 134.414-122.373 17.769-6.021 30.586-22.852 30.586-42.627 0-19.556-12.539-36.24-30-42.436zm-180 42.436c-8.284 0-15-6.716-15-15 0-8.286 6.716-15 15-15s15 6.714 15 15c0 8.284-6.716 15-15 15zm90 0c-8.284 0-15-6.716-15-15 0-8.286 6.716-15 15-15s15 6.714 15 15c0 8.284-6.716 15-15 15z"/></g></g></svg>