<svg xmlns="http://www.w3.org/2000/svg" viewBox="0 0 1041.58 741.54"><defs><style>.cls-1{fill:#f2bc1b;}.cls-2{fill:#f2f2f2;}</style></defs><g id="Calque_2" data-name="Calque 2"><g id="Calque_1-2" data-name="Calque 1"><rect class="cls-1" x="111.6" y="74.4" width="74.4" height="371.99" rx="19.46"/><rect class="cls-1" y="148.8" width="74.4" height="223.2" rx="19.46"/><rect class="cls-1" x="855.58" y="74.4" width="74.4" height="371.99" rx="19.46"/><rect class="cls-1" x="967.18" y="148.8" width="74.4" height="223.2" rx="19.46"/><path class="cls-1" d="M744,501.33a19.46,19.46,0,0,0,19.46,19.46h35.49a19.45,19.45,0,0,0,19.45-19.46V19.46A19.45,19.45,0,0,0,798.93,0H763.44A19.46,19.46,0,0,0,744,19.46V223.2H297.59V19.46A19.45,19.45,0,0,0,278.14,0H242.65A19.45,19.45,0,0,0,223.2,19.46V501.33a19.45,19.45,0,0,0,19.45,19.46h35.49a19.45,19.45,0,0,0,19.45-19.46V297.59H744Z"/><polygon class="cls-2" points="11.8 739.97 20.3 739.97 20.3 677.18 50.83 677.18 50.83 670.57 20.3 670.57 20.3 619.27 55.71 619.27 55.71 612.5 11.8 612.5 11.8 739.97"/><rect class="cls-2" x="72.23" y="612.5" width="8.5" height="127.47"/><polygon class="cls-2" points="95.83 619.43 121.33 619.43 121.33 739.97 129.82 739.97 129.82 619.43 154.69 619.43 154.69 612.5 95.83 612.5 95.83 619.43"/><polygon class="cls-2" points="219.68 720.14 176.4 612.5 169.63 612.5 169.63 739.97 177.19 739.97 177.19 632.17 220.46 739.97 227.23 739.97 227.23 612.5 219.68 612.5 219.68 720.14"/><polygon class="cls-2" points="259.18 677.18 288.29 677.18 288.29 670.57 259.18 670.57 259.18 619.43 294.58 619.43 294.58 612.5 250.52 612.5 250.52 739.97 295.06 739.97 295.06 733.2 259.18 733.2 259.18 677.18"/><path class="cls-2" d="M347.61,678.6l-23-22.67a33.31,33.31,0,0,1-7.32-9.91,23.64,23.64,0,0,1-2-9.44q0-9.75,5.83-14.16T335.65,618q7.71,0,12.28,2.91a18,18,0,0,1,6.92,8.89,51,51,0,0,1,3,15l7.24-1.73a57,57,0,0,0-2.83-15.11,25.15,25.15,0,0,0-6.06-9.83,22.88,22.88,0,0,0-9.05-5.35,38.33,38.33,0,0,0-11.64-1.65q-12.44,0-20.23,6.76t-7.79,19.36a29.61,29.61,0,0,0,2.68,12.27,41.75,41.75,0,0,0,8.5,12L342,684.58A87.19,87.19,0,0,1,354.14,699a27,27,0,0,1,4.33,15q0,11-5.43,15.74t-14.87,4.72q-8.34,0-13.06-3.54a20.69,20.69,0,0,1-7-10,72.93,72.93,0,0,1-3.39-14.8l-7.39,2.37A51.25,51.25,0,0,0,311.5,726a25.91,25.91,0,0,0,9.91,11.49q6.52,4.09,16.6,4.09a34.93,34.93,0,0,0,14.8-3,22.25,22.25,0,0,0,10.07-9.2q3.62-6.23,3.62-15.82a33.76,33.76,0,0,0-5.59-18.8A95.69,95.69,0,0,0,347.61,678.6Z"/><path class="cls-2" d="M418.74,678.6l-23-22.67a33.31,33.31,0,0,1-7.32-9.91,23.64,23.64,0,0,1-2-9.44q0-9.75,5.82-14.16T406.78,618q7.71,0,12.28,2.91a18,18,0,0,1,6.92,8.89,51,51,0,0,1,3,15l7.24-1.73a57.45,57.45,0,0,0-2.83-15.11,25.15,25.15,0,0,0-6.06-9.83,22.88,22.88,0,0,0-9.05-5.35,38.39,38.39,0,0,0-11.65-1.65q-12.44,0-20.22,6.76t-7.79,19.36a29.61,29.61,0,0,0,2.68,12.27,41.75,41.75,0,0,0,8.5,12l23.29,23.14A87.68,87.68,0,0,1,425.27,699a27,27,0,0,1,4.33,15q0,11-5.43,15.74t-14.87,4.72q-8.34,0-13.06-3.54a20.7,20.7,0,0,1-7-10,73,73,0,0,1-3.38-14.8l-7.39,2.37A51.25,51.25,0,0,0,382.63,726a25.91,25.91,0,0,0,9.91,11.49q6.52,4.09,16.6,4.09a34.85,34.85,0,0,0,14.79-3,22.28,22.28,0,0,0,10.08-9.2q3.62-6.23,3.61-15.82a33.75,33.75,0,0,0-5.58-18.8A95.69,95.69,0,0,0,418.74,678.6Z"/><path class="cls-2" d="M545,628.71a24.16,24.16,0,0,0-10-12q-6.84-4.17-18.33-4.17H485V740h17.78V680.64h14q10.38,0,17.31-4a25.72,25.72,0,0,0,10.46-11.41,40.08,40.08,0,0,0,3.54-17.47Q548.09,636.57,545,628.71ZM529.37,660.1a11,11,0,0,1-6.3,6.06q-4.41,1.74-12.11,1.73h-8.19V625.25h8.34q9,0,13.22,1.89a9.82,9.82,0,0,1,5.59,6.76q1.33,4.89,1.34,14Q531.26,655.79,529.37,660.1Z"/><path class="cls-2" d="M591.84,612.5H574.69L547.62,740H564.3l6.14-32.11h26L602.23,740h16.84Zm-19,82.62,10.54-57.44L594,695.12Z"/><path class="cls-2" d="M679.33,676.08a19.63,19.63,0,0,0,9.13-6.06,26,26,0,0,0,5-10.23,53.91,53.91,0,0,0,1.57-13.45q0-12.12-4-19.6a23.61,23.61,0,0,0-12.36-10.86q-8.34-3.37-21.08-3.38H632V740h17.78v-59.8H663.6L680.28,740h17.15Zm-3.62-17a12.61,12.61,0,0,1-6.92,6.45,33.5,33.5,0,0,1-12.27,1.89h-6.77V625.25h7.87q12.11,0,16.21,5t4.09,16.13Q677.92,654.51,675.71,659.08Z"/><path class="cls-2" d="M750.93,612.5H733.78L706.72,740H723.4l6.13-32.11h26L761.32,740h16.84Zm-19,82.62,10.55-57.44,10.7,57.44Z"/><path class="cls-2" d="M853,629.81a24.83,24.83,0,0,0-11.8-13q-8.26-4.32-22.42-4.33h-27.7V740h29.11q13.38,0,21.33-4.8A27.24,27.24,0,0,0,853,721.08q3.54-9.29,3.54-22.81v-46.9Q856.52,638.47,853,629.81ZM838.59,695a151.66,151.66,0,0,1-.87,17.47q-.87,7.25-5,11t-13.85,3.78H808.84V625.72h9.6q9.13,0,13.38,2.83t5.51,9a83.42,83.42,0,0,1,1.26,16.05Z"/><rect class="cls-2" x="874.93" y="612.5" width="17.47" height="127.47"/><path class="cls-2" d="M955.35,675.29l-21.56-18.88a28.18,28.18,0,0,1-6.38-7.71,20.73,20.73,0,0,1-2-9.6q0-6.93,3.69-10.47t10.31-3.54q6.62,0,10.15,3.23a17.25,17.25,0,0,1,5,8.5,63.43,63.43,0,0,1,1.89,11.56l15.1-4.09a58.65,58.65,0,0,0-3.06-14.56,29.92,29.92,0,0,0-6.14-10.3,23.27,23.27,0,0,0-9.6-6.06,41.05,41.05,0,0,0-13.3-2q-13.85,0-21.87,7.71t-8,21.72q0,9.6,3,16.13a36,36,0,0,0,9.29,12l21.4,18.88a73.76,73.76,0,0,1,9.91,10.62q3.93,5.28,3.94,13.93,0,7.25-3.54,11.09t-10.47,3.86q-6.77,0-10.54-4a23.36,23.36,0,0,1-5.43-10.31A71.35,71.35,0,0,1,925,700l-15.73,4.25a54.29,54.29,0,0,0,4.4,19.35,29.72,29.72,0,0,0,11.1,13.06q7.32,4.73,18.33,4.72a33.29,33.29,0,0,0,15.82-3.62,26.59,26.59,0,0,0,10.78-10.46A32.16,32.16,0,0,0,973.6,711q0-12-5.51-20.69A67.57,67.57,0,0,0,955.35,675.29Z"/><polygon class="cls-2" points="1005.23 680.48 1030.88 680.48 1030.88 667.89 1005.23 667.89 1005.23 625.72 1036.86 625.72 1036.86 612.5 987.45 612.5 987.45 739.97 1037.17 739.97 1037.17 727.22 1005.23 727.22 1005.23 680.48"/></g></g></svg>